<mxfile host="app.diagrams.net" agent="Mozilla/5.0 (Windows NT 6.1) AppleWebKit/537.36 (KHTML, like Gecko) Chrome/91.0.4472.164 Safari/537.36 OPR/77.0.4054.277" version="24.7.17">
  <diagram id="enZpTJXq5t34NUxq1CYq" name="Страница — 1">
    <mxGraphModel grid="0" page="0" gridSize="10" guides="1" tooltips="1" connect="1" arrows="1" fold="1" pageScale="1" pageWidth="827" pageHeight="1169" math="0" shadow="0">
      <root>
        <mxCell id="0" />
        <mxCell id="1" parent="0" />
        <mxCell id="ljZ8wFSFIm8bRmeTR4Ra-35" value="Словарь" style="rounded=0;whiteSpace=wrap;html=1;verticalAlign=top;" vertex="1" parent="1">
          <mxGeometry x="374" y="1242" width="820" height="533" as="geometry" />
        </mxCell>
        <mxCell id="ljZ8wFSFIm8bRmeTR4Ra-36" style="edgeStyle=none;rounded=0;orthogonalLoop=1;jettySize=auto;html=1;endArrow=block;endFill=0;" edge="1" parent="1" source="ljZ8wFSFIm8bRmeTR4Ra-37" target="ljZ8wFSFIm8bRmeTR4Ra-42">
          <mxGeometry relative="1" as="geometry" />
        </mxCell>
        <mxCell id="ljZ8wFSFIm8bRmeTR4Ra-37" value="Ученик" style="shape=umlActor;verticalLabelPosition=bottom;verticalAlign=top;html=1;outlineConnect=0;" vertex="1" parent="1">
          <mxGeometry x="155" y="1374" width="30" height="60" as="geometry" />
        </mxCell>
        <mxCell id="ljZ8wFSFIm8bRmeTR4Ra-38" style="rounded=0;orthogonalLoop=1;jettySize=auto;html=1;endArrow=block;endFill=0;" edge="1" parent="1" source="ljZ8wFSFIm8bRmeTR4Ra-39" target="ljZ8wFSFIm8bRmeTR4Ra-42">
          <mxGeometry relative="1" as="geometry" />
        </mxCell>
        <mxCell id="ljZ8wFSFIm8bRmeTR4Ra-39" value="Преподаватель" style="shape=umlActor;verticalLabelPosition=bottom;verticalAlign=top;html=1;outlineConnect=0;" vertex="1" parent="1">
          <mxGeometry x="155" y="1544" width="30" height="60" as="geometry" />
        </mxCell>
        <mxCell id="ljZ8wFSFIm8bRmeTR4Ra-40" style="edgeStyle=none;rounded=0;orthogonalLoop=1;jettySize=auto;html=1;entryX=0;entryY=0.5;entryDx=0;entryDy=0;endArrow=none;endFill=0;" edge="1" parent="1" source="ljZ8wFSFIm8bRmeTR4Ra-42" target="ljZ8wFSFIm8bRmeTR4Ra-44">
          <mxGeometry relative="1" as="geometry" />
        </mxCell>
        <mxCell id="ljZ8wFSFIm8bRmeTR4Ra-41" style="edgeStyle=none;rounded=0;orthogonalLoop=1;jettySize=auto;html=1;entryX=0;entryY=0.5;entryDx=0;entryDy=0;endArrow=none;endFill=0;" edge="1" parent="1" source="ljZ8wFSFIm8bRmeTR4Ra-42" target="ljZ8wFSFIm8bRmeTR4Ra-46">
          <mxGeometry relative="1" as="geometry" />
        </mxCell>
        <mxCell id="ljZ8wFSFIm8bRmeTR4Ra-42" value="Пользователь" style="shape=umlActor;verticalLabelPosition=bottom;verticalAlign=top;html=1;outlineConnect=0;" vertex="1" parent="1">
          <mxGeometry x="265" y="1454" width="30" height="60" as="geometry" />
        </mxCell>
        <mxCell id="ljZ8wFSFIm8bRmeTR4Ra-43" style="edgeStyle=none;rounded=0;orthogonalLoop=1;jettySize=auto;html=1;dashed=1;endArrow=blockThin;endFill=1;" edge="1" parent="1" target="ljZ8wFSFIm8bRmeTR4Ra-60">
          <mxGeometry relative="1" as="geometry">
            <mxPoint x="821" y="1325" as="sourcePoint" />
          </mxGeometry>
        </mxCell>
        <mxCell id="ljZ8wFSFIm8bRmeTR4Ra-44" value="Найти слово в словаре" style="ellipse;whiteSpace=wrap;html=1;" vertex="1" parent="1">
          <mxGeometry x="715" y="1288" width="110" height="60" as="geometry" />
        </mxCell>
        <mxCell id="ljZ8wFSFIm8bRmeTR4Ra-45" style="edgeStyle=none;rounded=0;orthogonalLoop=1;jettySize=auto;html=1;entryX=0.5;entryY=1;entryDx=0;entryDy=0;dashed=1;endArrow=blockThin;endFill=1;exitX=0.963;exitY=0.243;exitDx=0;exitDy=0;exitPerimeter=0;" edge="1" parent="1" source="ljZ8wFSFIm8bRmeTR4Ra-46" target="ljZ8wFSFIm8bRmeTR4Ra-60">
          <mxGeometry relative="1" as="geometry">
            <mxPoint x="840" y="1710" as="sourcePoint" />
          </mxGeometry>
        </mxCell>
        <mxCell id="ljZ8wFSFIm8bRmeTR4Ra-46" value="Просмотреть &lt;br&gt;список слов в словаре пользователя" style="ellipse;whiteSpace=wrap;html=1;" vertex="1" parent="1">
          <mxGeometry x="690" y="1688" width="160" height="70" as="geometry" />
        </mxCell>
        <mxCell id="ljZ8wFSFIm8bRmeTR4Ra-47" style="edgeStyle=none;rounded=0;orthogonalLoop=1;jettySize=auto;html=1;entryX=0.069;entryY=0.221;entryDx=0;entryDy=0;entryPerimeter=0;endArrow=blockThin;endFill=1;dashed=1;" edge="1" parent="1" source="ljZ8wFSFIm8bRmeTR4Ra-49" target="ljZ8wFSFIm8bRmeTR4Ra-46">
          <mxGeometry relative="1" as="geometry" />
        </mxCell>
        <mxCell id="ljZ8wFSFIm8bRmeTR4Ra-48" style="edgeStyle=none;rounded=0;orthogonalLoop=1;jettySize=auto;html=1;entryX=0.091;entryY=0.758;entryDx=0;entryDy=0;entryPerimeter=0;dashed=1;fontSize=10;endArrow=blockThin;endFill=1;" edge="1" parent="1" source="ljZ8wFSFIm8bRmeTR4Ra-49" target="ljZ8wFSFIm8bRmeTR4Ra-44">
          <mxGeometry relative="1" as="geometry" />
        </mxCell>
        <mxCell id="ljZ8wFSFIm8bRmeTR4Ra-49" value="Прослушать озвучку произношения" style="ellipse;whiteSpace=wrap;html=1;" vertex="1" parent="1">
          <mxGeometry x="417" y="1471" width="110" height="60" as="geometry" />
        </mxCell>
        <mxCell id="ljZ8wFSFIm8bRmeTR4Ra-50" style="edgeStyle=none;rounded=0;orthogonalLoop=1;jettySize=auto;html=1;entryX=0.225;entryY=0.05;entryDx=0;entryDy=0;entryPerimeter=0;dashed=1;endArrow=blockThin;endFill=1;" edge="1" parent="1" source="ljZ8wFSFIm8bRmeTR4Ra-51" target="ljZ8wFSFIm8bRmeTR4Ra-46">
          <mxGeometry relative="1" as="geometry" />
        </mxCell>
        <mxCell id="ljZ8wFSFIm8bRmeTR4Ra-51" value="Добавить карточку для изучения" style="ellipse;whiteSpace=wrap;html=1;" vertex="1" parent="1">
          <mxGeometry x="537" y="1500" width="110" height="60" as="geometry" />
        </mxCell>
        <mxCell id="ljZ8wFSFIm8bRmeTR4Ra-52" style="edgeStyle=none;rounded=0;orthogonalLoop=1;jettySize=auto;html=1;dashed=1;endArrow=blockThin;endFill=1;" edge="1" parent="1" source="ljZ8wFSFIm8bRmeTR4Ra-53" target="ljZ8wFSFIm8bRmeTR4Ra-44">
          <mxGeometry relative="1" as="geometry" />
        </mxCell>
        <mxCell id="ljZ8wFSFIm8bRmeTR4Ra-53" value="Добавить в словарь пользователя" style="ellipse;whiteSpace=wrap;html=1;" vertex="1" parent="1">
          <mxGeometry x="626" y="1418" width="110" height="60" as="geometry" />
        </mxCell>
        <mxCell id="ljZ8wFSFIm8bRmeTR4Ra-54" style="edgeStyle=none;rounded=0;orthogonalLoop=1;jettySize=auto;html=1;dashed=1;endArrow=blockThin;endFill=1;entryX=1;entryY=1;entryDx=0;entryDy=0;" edge="1" parent="1" source="ljZ8wFSFIm8bRmeTR4Ra-57" target="ljZ8wFSFIm8bRmeTR4Ra-44">
          <mxGeometry relative="1" as="geometry">
            <mxPoint x="865.1369117642514" y="1344.8554612292785" as="targetPoint" />
          </mxGeometry>
        </mxCell>
        <mxCell id="ljZ8wFSFIm8bRmeTR4Ra-55" style="edgeStyle=none;rounded=0;orthogonalLoop=1;jettySize=auto;html=1;dashed=1;endArrow=blockThin;endFill=1;entryX=1;entryY=0;entryDx=0;entryDy=0;" edge="1" parent="1" source="ljZ8wFSFIm8bRmeTR4Ra-57" target="ljZ8wFSFIm8bRmeTR4Ra-46">
          <mxGeometry relative="1" as="geometry">
            <mxPoint x="879" y="1688" as="targetPoint" />
          </mxGeometry>
        </mxCell>
        <mxCell id="ljZ8wFSFIm8bRmeTR4Ra-56" style="edgeStyle=none;rounded=0;orthogonalLoop=1;jettySize=auto;html=1;entryX=0;entryY=0.5;entryDx=0;entryDy=0;dashed=1;endArrow=blockThin;endFill=1;" edge="1" parent="1" source="ljZ8wFSFIm8bRmeTR4Ra-57" target="ljZ8wFSFIm8bRmeTR4Ra-60">
          <mxGeometry relative="1" as="geometry" />
        </mxCell>
        <mxCell id="ljZ8wFSFIm8bRmeTR4Ra-57" value="Просмотреть подробную информацию" style="ellipse;whiteSpace=wrap;html=1;" vertex="1" parent="1">
          <mxGeometry x="911" y="1441" width="110" height="60" as="geometry" />
        </mxCell>
        <mxCell id="ljZ8wFSFIm8bRmeTR4Ra-58" style="edgeStyle=none;rounded=0;orthogonalLoop=1;jettySize=auto;html=1;dashed=1;endArrow=blockThin;endFill=1;entryX=0.379;entryY=0.024;entryDx=0;entryDy=0;entryPerimeter=0;" edge="1" parent="1" source="ljZ8wFSFIm8bRmeTR4Ra-59" target="ljZ8wFSFIm8bRmeTR4Ra-46">
          <mxGeometry relative="1" as="geometry">
            <mxPoint x="903" y="1697" as="targetPoint" />
          </mxGeometry>
        </mxCell>
        <mxCell id="ljZ8wFSFIm8bRmeTR4Ra-59" value="Удалить карточку" style="ellipse;whiteSpace=wrap;html=1;" vertex="1" parent="1">
          <mxGeometry x="659" y="1518" width="110" height="61" as="geometry" />
        </mxCell>
        <mxCell id="ljZ8wFSFIm8bRmeTR4Ra-60" value="Просмотреть перевод" style="ellipse;whiteSpace=wrap;html=1;" vertex="1" parent="1">
          <mxGeometry x="1069" y="1454" width="110" height="61" as="geometry" />
        </mxCell>
        <mxCell id="ljZ8wFSFIm8bRmeTR4Ra-61" value="&lt;font style=&quot;font-size: 10px; background-color: rgb(255, 255, 255);&quot;&gt;&amp;lt;&amp;lt;extend&amp;gt;&amp;gt;&lt;/font&gt;" style="text;html=1;strokeColor=none;fillColor=none;align=center;verticalAlign=middle;whiteSpace=wrap;rounded=0;" vertex="1" parent="1">
          <mxGeometry x="692" y="1376" width="60" height="30" as="geometry" />
        </mxCell>
        <mxCell id="ljZ8wFSFIm8bRmeTR4Ra-62" value="&lt;font style=&quot;font-size: 10px; background-color: rgb(255, 255, 255);&quot;&gt;&amp;lt;&amp;lt;extend&amp;gt;&amp;gt;&lt;/font&gt;" style="text;html=1;strokeColor=none;fillColor=none;align=center;verticalAlign=middle;whiteSpace=wrap;rounded=0;" vertex="1" parent="1">
          <mxGeometry x="609" y="1372" width="60" height="30" as="geometry" />
        </mxCell>
        <mxCell id="ljZ8wFSFIm8bRmeTR4Ra-63" value="&lt;font style=&quot;font-size: 10px; background-color: rgb(255, 255, 255);&quot;&gt;&amp;lt;&amp;lt;extend&amp;gt;&amp;gt;&lt;/font&gt;" style="text;html=1;strokeColor=none;fillColor=none;align=center;verticalAlign=middle;whiteSpace=wrap;rounded=0;" vertex="1" parent="1">
          <mxGeometry x="614" y="1629" width="60" height="30" as="geometry" />
        </mxCell>
        <mxCell id="ljZ8wFSFIm8bRmeTR4Ra-64" value="&lt;font style=&quot;font-size: 10px; background-color: rgb(255, 255, 255);&quot;&gt;&amp;lt;&amp;lt;extend&amp;gt;&amp;gt;&lt;/font&gt;" style="text;html=1;strokeColor=none;fillColor=none;align=center;verticalAlign=middle;whiteSpace=wrap;rounded=0;" vertex="1" parent="1">
          <mxGeometry x="676" y="1645" width="60" height="30" as="geometry" />
        </mxCell>
        <mxCell id="ljZ8wFSFIm8bRmeTR4Ra-65" value="&lt;font style=&quot;font-size: 10px; background-color: rgb(255, 255, 255);&quot;&gt;&amp;lt;&amp;lt;extend&amp;gt;&amp;gt;&lt;/font&gt;" style="text;html=1;strokeColor=none;fillColor=none;align=center;verticalAlign=middle;whiteSpace=wrap;rounded=0;" vertex="1" parent="1">
          <mxGeometry x="857" y="1567.73" width="60" height="30" as="geometry" />
        </mxCell>
        <mxCell id="ljZ8wFSFIm8bRmeTR4Ra-67" value="&lt;font style=&quot;font-size: 10px; background-color: rgb(255, 255, 255);&quot;&gt;&amp;lt;&amp;lt;extend&amp;gt;&amp;gt;&lt;/font&gt;" style="text;html=1;strokeColor=none;fillColor=none;align=center;verticalAlign=middle;whiteSpace=wrap;rounded=0;" vertex="1" parent="1">
          <mxGeometry x="844" y="1384.73" width="60" height="30" as="geometry" />
        </mxCell>
        <mxCell id="ljZ8wFSFIm8bRmeTR4Ra-68" value="&lt;font style=&quot;font-size: 10px; background-color: rgb(255, 255, 255);&quot;&gt;&amp;lt;&amp;lt;include&amp;gt;&amp;gt;&lt;/font&gt;" style="text;html=1;strokeColor=none;fillColor=none;align=center;verticalAlign=middle;whiteSpace=wrap;rounded=0;" vertex="1" parent="1">
          <mxGeometry x="923" y="1384.73" width="60" height="30" as="geometry" />
        </mxCell>
        <mxCell id="ljZ8wFSFIm8bRmeTR4Ra-69" value="&lt;font style=&quot;font-size: 10px; background-color: rgb(255, 255, 255);&quot;&gt;&amp;lt;&amp;lt;include&amp;gt;&amp;gt;&lt;/font&gt;" style="text;html=1;strokeColor=none;fillColor=none;align=center;verticalAlign=middle;whiteSpace=wrap;rounded=0;" vertex="1" parent="1">
          <mxGeometry x="1004" y="1572" width="60" height="30" as="geometry" />
        </mxCell>
        <mxCell id="ljZ8wFSFIm8bRmeTR4Ra-70" value="&lt;font style=&quot;font-size: 10px; background-color: rgb(255, 255, 255);&quot;&gt;&amp;lt;&amp;lt;include&amp;gt;&amp;gt;&lt;/font&gt;" style="text;html=1;strokeColor=none;fillColor=none;align=center;verticalAlign=middle;whiteSpace=wrap;rounded=0;" vertex="1" parent="1">
          <mxGeometry x="995" y="1462.73" width="60" height="30" as="geometry" />
        </mxCell>
        <mxCell id="ljZ8wFSFIm8bRmeTR4Ra-71" style="edgeStyle=none;rounded=0;orthogonalLoop=1;jettySize=auto;html=1;entryX=0;entryY=1;entryDx=0;entryDy=0;dashed=1;exitX=1;exitY=0.5;exitDx=0;exitDy=0;startArrow=classic;startFill=1;endArrow=none;endFill=0;" edge="1" parent="1" source="ljZ8wFSFIm8bRmeTR4Ra-46" target="ljZ8wFSFIm8bRmeTR4Ra-72">
          <mxGeometry relative="1" as="geometry">
            <mxPoint x="812.9983335043903" y="1288.9613820220345" as="sourcePoint" />
          </mxGeometry>
        </mxCell>
        <mxCell id="ljZ8wFSFIm8bRmeTR4Ra-72" value="Проверить знания" style="ellipse;whiteSpace=wrap;html=1;" vertex="1" parent="1">
          <mxGeometry x="1021" y="1607" width="110" height="61" as="geometry" />
        </mxCell>
        <mxCell id="ljZ8wFSFIm8bRmeTR4Ra-73" value="&lt;font style=&quot;font-size: 10px; background-color: rgb(255, 255, 255);&quot;&gt;&amp;lt;&amp;lt;extend&amp;gt;&amp;gt;&lt;/font&gt;" style="text;html=1;strokeColor=none;fillColor=none;align=center;verticalAlign=middle;whiteSpace=wrap;rounded=0;" vertex="1" parent="1">
          <mxGeometry x="902" y="1683" width="60" height="30" as="geometry" />
        </mxCell>
        <mxCell id="ljZ8wFSFIm8bRmeTR4Ra-74" style="edgeStyle=none;rounded=0;orthogonalLoop=1;jettySize=auto;html=1;entryX=0.621;entryY=0.043;entryDx=0;entryDy=0;entryPerimeter=0;dashed=1;startArrow=none;startFill=0;endArrow=classicThin;endFill=1;" edge="1" parent="1" source="ljZ8wFSFIm8bRmeTR4Ra-66" target="ljZ8wFSFIm8bRmeTR4Ra-46">
          <mxGeometry relative="1" as="geometry" />
        </mxCell>
        <mxCell id="ljZ8wFSFIm8bRmeTR4Ra-75" value="Удалить слово" style="ellipse;whiteSpace=wrap;html=1;" vertex="1" parent="1">
          <mxGeometry x="801" y="1518" width="110" height="61" as="geometry" />
        </mxCell>
        <mxCell id="ljZ8wFSFIm8bRmeTR4Ra-76" value="&lt;font style=&quot;font-size: 10px; background-color: rgb(255, 255, 255);&quot;&gt;&amp;lt;&amp;lt;extend&amp;gt;&amp;gt;&lt;/font&gt;" style="text;html=1;strokeColor=none;fillColor=none;align=center;verticalAlign=middle;whiteSpace=wrap;rounded=0;" vertex="1" parent="1">
          <mxGeometry x="702" y="1615" width="60" height="30" as="geometry" />
        </mxCell>
        <mxCell id="D6TRa4BnZ7KOYQqoTTtm-1" value="Посмотреть видео с новым словом" style="ellipse;whiteSpace=wrap;html=1;" vertex="1" parent="1">
          <mxGeometry x="752" y="1428" width="109" height="73" as="geometry" />
        </mxCell>
        <mxCell id="D6TRa4BnZ7KOYQqoTTtm-9" style="edgeStyle=none;rounded=0;orthogonalLoop=1;jettySize=auto;html=1;dashed=1;endArrow=blockThin;endFill=1;" edge="1" parent="1" source="ljZ8wFSFIm8bRmeTR4Ra-35" target="ljZ8wFSFIm8bRmeTR4Ra-35">
          <mxGeometry relative="1" as="geometry">
            <mxPoint x="805" y="1383" as="sourcePoint" />
            <mxPoint x="783.3" y="1436" as="targetPoint" />
          </mxGeometry>
        </mxCell>
        <mxCell id="D6TRa4BnZ7KOYQqoTTtm-10" style="edgeStyle=none;rounded=0;orthogonalLoop=1;jettySize=auto;html=1;dashed=1;endArrow=blockThin;endFill=1;entryX=0.5;entryY=1;entryDx=0;entryDy=0;exitX=0.404;exitY=0.027;exitDx=0;exitDy=0;exitPerimeter=0;" edge="1" parent="1" source="D6TRa4BnZ7KOYQqoTTtm-1" target="ljZ8wFSFIm8bRmeTR4Ra-44">
          <mxGeometry relative="1" as="geometry">
            <mxPoint x="796" y="1420" as="sourcePoint" />
            <mxPoint x="779" y="1351" as="targetPoint" />
          </mxGeometry>
        </mxCell>
        <mxCell id="D6TRa4BnZ7KOYQqoTTtm-12" value="&lt;font style=&quot;font-size: 10px; background-color: rgb(255, 255, 255);&quot;&gt;&amp;lt;&amp;lt;extend&amp;gt;&amp;gt;&lt;/font&gt;" style="text;html=1;strokeColor=none;fillColor=none;align=center;verticalAlign=middle;whiteSpace=wrap;rounded=0;" vertex="1" parent="1">
          <mxGeometry x="754" y="1376" width="60" height="30" as="geometry" />
        </mxCell>
        <mxCell id="D6TRa4BnZ7KOYQqoTTtm-13" style="edgeStyle=none;rounded=0;orthogonalLoop=1;jettySize=auto;html=1;dashed=1;endArrow=blockThin;endFill=1;entryX=0.5;entryY=0;entryDx=0;entryDy=0;" edge="1" parent="1" target="ljZ8wFSFIm8bRmeTR4Ra-46">
          <mxGeometry relative="1" as="geometry">
            <mxPoint x="818" y="1611" as="targetPoint" />
            <mxPoint x="789" y="1500" as="sourcePoint" />
          </mxGeometry>
        </mxCell>
        <mxCell id="D6TRa4BnZ7KOYQqoTTtm-14" value="" style="edgeStyle=none;rounded=0;orthogonalLoop=1;jettySize=auto;html=1;entryX=0.621;entryY=0.043;entryDx=0;entryDy=0;entryPerimeter=0;dashed=1;startArrow=none;startFill=0;endArrow=classicThin;endFill=1;" edge="1" parent="1" source="ljZ8wFSFIm8bRmeTR4Ra-75" target="ljZ8wFSFIm8bRmeTR4Ra-66">
          <mxGeometry relative="1" as="geometry">
            <mxPoint x="842" y="1578" as="sourcePoint" />
            <mxPoint x="789" y="1691" as="targetPoint" />
          </mxGeometry>
        </mxCell>
        <mxCell id="ljZ8wFSFIm8bRmeTR4Ra-66" value="&lt;font style=&quot;font-size: 10px; background-color: rgb(255, 255, 255);&quot;&gt;&amp;lt;&amp;lt;extend&amp;gt;&amp;gt;&lt;/font&gt;" style="text;html=1;strokeColor=none;fillColor=none;align=center;verticalAlign=middle;whiteSpace=wrap;rounded=0;" vertex="1" parent="1">
          <mxGeometry x="790" y="1599" width="60" height="30" as="geometry" />
        </mxCell>
        <mxCell id="D6TRa4BnZ7KOYQqoTTtm-15" value="&lt;font style=&quot;font-size: 10px; background-color: rgb(255, 255, 255);&quot;&gt;&amp;lt;&amp;lt;extend&amp;gt;&amp;gt;&lt;/font&gt;" style="text;html=1;strokeColor=none;fillColor=none;align=center;verticalAlign=middle;whiteSpace=wrap;rounded=0;" vertex="1" parent="1">
          <mxGeometry x="754" y="1560" width="60" height="30" as="geometry" />
        </mxCell>
      </root>
    </mxGraphModel>
  </diagram>
</mxfile>
